<svg version="1.1" id="Layer_1" xmlns="http://www.w3.org/2000/svg" xmlns:xlink="http://www.w3.org/1999/xlink" x="0px" y="0px" viewBox="0 0 34 58" style="enable-background:new 0 0 34 58;" xml:space="preserve">
                         <style type="text/css">
                           .st0{fill:#7F8985;}
                         </style>
                         <path class="st0 expand" d="M33.5,29c0-1.4-0.5-2.8-1.4-3.7L9,2C8.1,1,6.8,0.5,5.5,0.5C4.2,0.5,2.9,1,2,2C1,2.9,0.5,4.3,0.5,5.6
                           C0.5,7,1,8.4,2,9.3l19.6,19.9L2,49c-0.9,1-1.5,2.2-1.5,3.5C0.5,53.8,1,55.1,2,56c0.9,0.9,2.2,1.5,3.5,1.5C6.8,57.5,8.1,57,9,56
                           l23-23.3C33,31.8,33.5,30.4,33.5,29z"></path>
                         </svg>